<?xml version="1.0" encoding="UTF-8"?>
<svg width="100" height="100" viewBox="0 0 100 100" fill="none" xmlns="http://www.w3.org/2000/svg">
  <!-- Ears (outer) -->
  <polygon points="15,30 28,8 38,28" fill="#6d28d9" />
  <polygon points="62,28 72,8 85,30" fill="#6d28d9" />
  <!-- Ears (inner) -->
  <polygon points="20,28 28,14 36,27" fill="#a78bfa" />
  <polygon points="64,27 72,14 80,28" fill="#a78bfa" />
  <!-- Head -->
  <ellipse cx="50" cy="52" rx="38" ry="35" fill="#7c3aed" />
  <!-- Snout -->
  <ellipse cx="50" cy="56" rx="24" ry="20" fill="#c4b5fd" />
  <!-- Eyes (idle) -->
  <ellipse cx="34" cy="38" rx="7" ry="7" fill="#ffffff" />
  <ellipse cx="35" cy="38" rx="4" ry="4" fill="#4c1d95" />
  <ellipse cx="66" cy="38" rx="7" ry="7" fill="#ffffff" />
  <ellipse cx="67" cy="38" rx="4" ry="4" fill="#4c1d95" />
  <circle cx="37" cy="36" r="1.5" fill="#ffffff" />
  <circle cx="69" cy="36" r="1.5" fill="#ffffff" />
  <!-- Nose -->
  <ellipse cx="50" cy="52" rx="5" ry="3.5" fill="#4c1d95" />
  <!-- Mouth -->
  <path d="M43 57 Q50 62 57 57" stroke="#4c1d95" stroke-width="2" fill="none" stroke-linecap="round" />
</svg>
